<svg width="10" height="10" viewBox="0 0 38.582 55.7158" fill="none" xmlns="http://www.w3.org/2000/svg" xmlns:xlink="http://www.w3.org/1999/xlink">
	<desc>
			Created with Pixso.
	</desc>
	<defs/>
	<path id="Vector" d="M1.85156 41.9263L19.291 41.9263L36.7324 41.9263" stroke="#7EB693" stroke-opacity="1.000000" stroke-width="2.000000"/>
	<path id="Vector" d="M5.79102 48.3579L19.291 48.3579L32.791 48.3579" stroke="#7EB693" stroke-opacity="1.000000" stroke-width="2.000000"/>
	<path id="Vector" d="M18.791 1.35791L18.791 8.35791L18.791 15.3579" stroke="#7EB693" stroke-opacity="1.000000" stroke-width="2.000000"/>
	<path id="Vector" d="M18.8652 14.6421L18.8652 41.0737" stroke="#7EB693" stroke-opacity="1.000000" stroke-width="2.000000"/>
	<path id="Vector" d="M29.9258 4.41065L18.8652 15.4949" stroke="#7EB693" stroke-opacity="1.000000" stroke-width="2.000000"/>
	<path id="Vector" d="M34.1777 8.67383L18.8652 24.0212" stroke="#7EB693" stroke-opacity="1.000000" stroke-width="2.000000"/>
	<path id="Vector" d="M36.7305 15.4946L18.8652 32.5473" stroke="#7EB693" stroke-opacity="1.000000" stroke-width="2.000000"/>
	<path id="Vector" d="M37.582 23.1685L18.8652 41.9264" stroke="#7EB693" stroke-opacity="1.000000" stroke-width="2.000000"/>
	<path id="Vector" d="M37.582 31.6948L27.373 41.9264" stroke="#7EB693" stroke-opacity="1.000000" stroke-width="2.000000"/>
	<path id="Vector" d="M1 31.6948L11.209 41.9264" stroke="#7EB693" stroke-opacity="1.000000" stroke-width="2.000000"/>
	<path id="Vector" d="M8.65625 4.41065L18.8652 15.4949" stroke="#7EB693" stroke-opacity="1.000000" stroke-width="2.000000"/>
	<path id="Vector" d="M4.40234 8.67383L18.8652 24.0212" stroke="#7EB693" stroke-opacity="1.000000" stroke-width="2.000000"/>
	<path id="Vector" d="M1.85156 14.6421L18.8672 32.5473" stroke="#7EB693" stroke-opacity="1.000000" stroke-width="2.000000"/>
	<path id="Vector" d="M1 22.3159L18.8652 41.0738" stroke="#7EB693" stroke-opacity="1.000000" stroke-width="2.000000"/>
	<path id="Vector" d="M1 35.8351L1 19.8807C1 9.4542 9.18945 1 19.291 1C29.3945 1 37.582 9.4542 37.582 19.8807L37.582 35.8351C37.584 46.2635 29.3945 54.7158 19.291 54.7158C9.18945 54.7158 1 46.2635 1 35.8351Z" stroke="#7EB693" stroke-opacity="1.000000" stroke-width="2.000000"/>
</svg>

